<svg xmlns="http://www.w3.org/2000/svg" version="1.1" xmlns:xlink="http://www.w3.org/1999/xlink" xmlns:svgjs="http://svgjs.com/svgjs" x="0" y="0" viewBox="0 0 512 512" style="enable-background:new 0 0 512 512" xml:space="preserve"><g><path xmlns="http://www.w3.org/2000/svg" d="m328 240a88 88 0 1 0 88 88 88.1 88.1 0 0 0 -88-88zm0 160a72 72 0 1 1 72-72 72.081 72.081 0 0 1 -72 72z" fill="currentColor" data-original="#000000"/><path xmlns="http://www.w3.org/2000/svg" d="m240 80h80a8 8 0 0 0 0-16h-80a8 8 0 0 0 0 16z" fill="currentColor" data-original="#000000"/><path xmlns="http://www.w3.org/2000/svg" d="m216 128h160a8 8 0 0 0 0-16h-160a8 8 0 0 0 0 16z" fill="currentColor" data-original="#000000"/><path xmlns="http://www.w3.org/2000/svg" d="m168 224h152a8 8 0 0 0 0-16h-152a8 8 0 0 0 0 16z" fill="currentColor" data-original="#000000"/><path xmlns="http://www.w3.org/2000/svg" d="m168 176h88a8 8 0 0 0 0-16h-88a8 8 0 0 0 0 16z" fill="currentColor" data-original="#000000"/><path xmlns="http://www.w3.org/2000/svg" d="m392 208h-40a8 8 0 0 0 0 16h40a8 8 0 0 0 0-16z" fill="currentColor" data-original="#000000"/><path xmlns="http://www.w3.org/2000/svg" d="m168 272h72a8 8 0 0 0 0-16h-72a8 8 0 0 0 0 16z" fill="currentColor" data-original="#000000"/><path xmlns="http://www.w3.org/2000/svg" d="m168 320h48a8 8 0 0 0 0-16h-48a8 8 0 0 0 0 16z" fill="currentColor" data-original="#000000"/><path xmlns="http://www.w3.org/2000/svg" d="m224 352h-56a8 8 0 0 0 0 16h56a8 8 0 0 0 0-16z" fill="currentColor" data-original="#000000"/><path xmlns="http://www.w3.org/2000/svg" d="m280 168a8 8 0 0 0 8 8h104a8 8 0 0 0 0-16h-104a8 8 0 0 0 -8 8z" fill="currentColor" data-original="#000000"/><path xmlns="http://www.w3.org/2000/svg" d="m362.343 290.343-57.1 57.1-10.587-15.881a8 8 0 1 0 -13.312 8.876l16 24a8 8 0 0 0 5.868 3.523q.395.039.788.039a8 8 0 0 0 5.657-2.343l64-64a8 8 0 0 0 -11.314-11.314z" fill="currentColor" data-original="#000000"/><path xmlns="http://www.w3.org/2000/svg" d="m445.657 82.343-64-64a8 8 0 0 0 -5.657-2.343h-256a8 8 0 0 0 -8 8v40h-40a8 8 0 0 0 -8 8v416a8 8 0 0 0 8 8h320a8 8 0 0 0 8-8v-40h40a8 8 0 0 0 8-8v-352a8 8 0 0 0 -2.343-5.657zm-61.657-39.03 36.687 36.687h-36.687zm0 436.687h-304v-400h32v360a8 8 0 0 0 8 8h264zm-256-48v-400h240v56a8 8 0 0 0 8 8h56v336z" fill="currentColor" data-original="#000000"/></g></svg>