<svg xmlns="http://www.w3.org/2000/svg" version="1.1" xmlns:xlink="http://www.w3.org/1999/xlink" xmlns:svgjs="http://svgjs.com/svgjs" x="0" y="0" viewBox="0 0 105 105" style="enable-background:new 0 0 512 512" xml:space="preserve"><g><g xmlns="http://www.w3.org/2000/svg"><g><path d="m93.9604492 95.5h-19.9898071c-.3378296-3.5911865-3.0961304-6.4810791-6.621521-7.0339355v-6.7297363h25.9599609c3.4287109 0 6.2177734-2.7939453 6.2177734-6.2275391v-4.1884766c0-.5527344-.4472656-1-1-1s-1 .4472656-1 1v4.1884766c0 2.3310547-1.8916016 4.2275391-4.2177734 4.2275391-48.3248634-.0042419-61.4032211 0-81.6181641 0-2.3261719 0-4.2177734-1.8964844-4.2177734-4.2275391v-46.8417969c0-.5527344-.4472656-1-1-1s-1 .4472656-1 1v46.8417969c0 3.4335938 2.7890625 6.2275391 6.2177734 6.2275391h24.9990234v6.7297363c-3.5253905.5528564-6.2836913 3.442749-6.6215209 7.0339355h-19.7437134c-.5527344 0-1 .4472656-1 1s.4472656 1 1 1h83.6357422c.5527344 0 1-.4472656 1-1s-.4472656-1-1-1zm-28.6113281-13.7636719v6.625h-26.6591797v-6.625zm-33.2714844 13.7636719c.3662109-2.8935547 2.84375-5.1386719 5.8349609-5.1386719h28.2138672c2.9912109 0 5.46875 2.2451172 5.8349609 5.1386719z" fill="currentColor" data-original="#000000"/><path d="m6.1469727 95.5h-1.6132813c-.5527344 0-1 .4472656-1 1s.4472656 1 1 1h1.6132813c.5527344 0 1-.4472656 1-1s-.4472657-1-1-1z" fill="currentColor" data-original="#000000"/><path d="m100.4663086 95.5h-2.5791016c-.5527344 0-1 .4472656-1 1s.4472656 1 1 1h2.5791016c.5527344 0 1-.4472656 1-1s-.4472656-1-1-1z" fill="currentColor" data-original="#000000"/><path d="m6.4731445 24.8808594c.5527344 0 1-.4472656 1-1v-10.0712891c0-2.3759765 1.8916016-4.3095703 4.2177735-4.3095703h81.618164c2.3261719 0 4.2177734 1.9335938 4.2177734 4.3095703v52.8574219c0 .5527344.4472656 1 1 1s1-.4472656 1-1v-52.8574219c.0000001-3.4794922-2.7890624-6.3095703-6.2177734-6.3095703h-81.618164c-3.4287109 0-6.2177734 2.8300781-6.2177734 6.3095703v10.0712891c-.0000001.5527344.4472656 1 .9999999 1z" fill="currentColor" data-original="#000000"/><path d="m48.1743164 74.7412109c0 2.1201172 1.7246094 3.8457031 3.8447266 3.8457031s3.8457031-1.7255859 3.8457031-3.8457031-1.7255859-3.8447266-3.8457031-3.8447266-3.8447266 1.7246095-3.8447266 3.8447266zm5.6904297 0c0 1.0175781-.828125 1.8457031-1.8457031 1.8457031s-1.8447266-.828125-1.8447266-1.8457031.8271484-1.8447266 1.8447266-1.8447266 1.8457031.8271485 1.8457031 1.8447266z" fill="currentColor" data-original="#000000"/><path d="m94.3012695 67.9472656v-54.1308593c0-.0253906-.0019531-.0634766-.0058594-.1035156 0-.0498047-.0048828-.1005859-.0126953-.1513672-.0791016-.484375-.4970703-.8398438-.9873047-.8398438l-81.5654297-.0126953c-.2275391 0-.4472656.0771484-.625.21875-.2597656.2089844-.4091797.5322266-.4091797.8886719v54.1308594c0 .5527344.4472656 1 1 1h81.6054688c.5527344-.0000001 1-.4472657 1-1.0000001zm-2-1h-79.6054687v-52.2382812l79.6054688.0126953v52.2255859z" fill="currentColor" data-original="#000000"/><path d="m30.8838501 34.291687 3.6644897 17.7630005c.2988281 1.4462891 1.5869141 2.4960938 3.0644531 2.4960938h4.9385376c-.0060425.1419067-.0215454.2814331-.0215454.4248047 0 5.4970703 4.4716797 9.96875 9.96875 9.96875s9.96875-4.4716797 9.96875-9.96875c0-.1433716-.0155029-.2828979-.0215454-.4248047h5.2061157c1.4785156 0 2.7666016-1.0498047 3.0634766-2.4960938l3.6950073-17.9016113c1.5281982-.7399902 2.5930786-2.2928467 2.5930786-4.1022949 0-2.5195313-2.0498047-4.5693359-4.5693359-4.5693359h-5.5553589l-5.2512817-7.4365234c-.3564453-.6162109-.9306641-1.0576172-1.6191406-1.2421875-.6845703-.1835938-1.4072266-.0908203-2.0234375.265625-1.2724609.7353516-1.7109375 2.3691406-.9277344 3.7197266l3.314209 4.6933594h-15.74469l3.3630981-4.7705078c.7333984-1.2724609.2958984-2.90625-.9765625-3.6425781-1.2744141-.734375-2.9072266-.296875-3.59375.9003906l-5.296875 7.5126953h-5.5585938c-1.2285156 0-2.3769531.4785156-3.2226563 1.3369141-.8564453.8447266-1.3476563 2.0224609-1.3476563 3.2324219.0000002 1.9261472 1.2008059 3.5692747 2.890198 4.2409055zm21.6146851 28.6526489c-4.3935547 0-7.96875-3.5751953-7.96875-7.96875s3.5751953-7.96875 7.96875-7.96875 7.96875 3.5751953 7.96875 7.96875-3.5751954 7.96875-7.96875 7.96875zm16.2578125-11.2929687c-.1074219.5214844-.5712891.8994141-1.1044922.8994141h-5.4952393c-.7278442-2.8963623-2.7207642-5.2877197-5.3602295-6.5561523v-8.8208008c0-.5527344-.4472656-1-1-1s-1 .4472656-1 1v8.1109618c-.7390747-.175293-1.5059204-.2779541-2.2978516-.2779541-.6956787 0-1.3744507.0727539-2.0302734.2089844v-8.0419922c0-.5527344-.4472656-1-1-1s-1 .4472656-1 1v8.6917114c-2.7728882 1.2316284-4.8753662 3.690918-5.6278076 6.6852417h-5.2276611c-.5332031 0-.9980469-.3789063-1.1054688-.9003906l-3.5126953-17.0273438h39.2763672zm-9.7714844-32.8505859c.0996094-.0576172.2089844-.0869141.3183594-.0869141.2392578 0 .4814453.1367188.640625.4072266l6.3056641 8.9296875c.1835938.3183594.0742188.7265625-.2441406.9101563 0 0 0 0-.0009766.0009766-.1552734.0878906-.3349609.1113281-.5048828.0664063-.171875-.0458984-.3154297-.15625-.453125-.3867188l-6.3056641-8.9287109c-.1835938-.3193361-.0742188-.7285158.2441406-.9121095zm-13.881836.2441406c.1230469-.2138672.3476563-.3339844.578125-.3339844.1132813 0 .2275391.0292969.3310547.0888672.3193359.1845703.4287109.59375.2939453.8359375l-6.4033203 9.0820313c-.185463.3220119-.5915375.4250774-.9091797.2441406-.0009766-.0009766-.0009766-.0009766-.0019531-.0009766-.1533203-.0888672-.2636719-.2324219-.3095703-.4042969-.046875-.171875-.0224609-.3515625.0175781-.4296875zm-14.3466796 9.1884765c.4765625-.4853516 1.1191406-.7519531 1.8076172-.7519531h4.256958c-.1842651.508667-.2138062 1.0588379-.0714111 1.5927734.3242798 1.2096195 1.4168854 1.9775391 2.5722656 1.9775391.9629555 0 1.8501701-.5288563 2.2646484-1.2578125l1.630249-2.3125h18.5669556l1.5791626 2.2363281c.7327728 1.2688046 2.3619537 1.7173882 3.6435547.9746094 1.1165771-.6444092 1.5891724-1.9811401 1.1593018-3.2109375h4.2684326c1.4169922 0 2.5693359 1.1523438 2.5693359 2.5693359s-1.1523438 2.5703125-2.5693359 2.5703125h-39.8701173c-1.4169922 0-2.5703125-1.1533203-2.5703125-2.5703125 0-.6777343.2734375-1.336914.7626954-1.8173828z" fill="currentColor" data-original="#000000"/><path d="m43.1411133 49.7861328c.5527344 0 1-.4472656 1-1v-11.6123047c0-.5527344-.4472656-1-1-1s-1 .4472656-1 1v11.6123047c0 .5527344.4472656 1 1 1z" fill="currentColor" data-original="#000000"/><path d="m62.1245117 49.7861328c.5527344 0 1-.4472656 1-1v-11.6123047c0-.5527344-.4472656-1-1-1s-1 .4472656-1 1v11.6123047c0 .5527344.4472656 1 1 1z" fill="currentColor" data-original="#000000"/><path d="m56.6118164 50.8623047c-.390625-.390625-1.0234375-.390625-1.4140625 0l-2.6992188 2.6992188-2.6992188-2.6992188c-.390625-.390625-1.0234375-.390625-1.4140625 0s-.390625 1.0234375 0 1.4140625l2.6992188 2.6992188-2.6992188 2.6992188c-.390625.390625-.390625 1.0234375 0 1.4140625.3906136.3906136 1.0234261.3906364 1.4140625 0l2.6992188-2.6992188 2.6992188 2.6992188c.3906136.3906136 1.0234261.3906364 1.4140625 0 .390625-.390625.390625-1.0234375 0-1.4140625l-2.6992188-2.6992188 2.6992188-2.6992188c.390625-.390625.390625-1.0234375 0-1.4140625z" fill="currentColor" data-original="#000000"/></g></g></g></svg>