<svg xmlns="http://www.w3.org/2000/svg" version="1.1" xmlns:xlink="http://www.w3.org/1999/xlink" xmlns:svgjs="http://svgjs.com/svgjs" x="0" y="0" viewBox="0 0 16.933333 16.933333" style="enable-background:new 0 0 512 512" xml:space="preserve"><g><g xmlns="http://www.w3.org/2000/svg" id="layer2"><path id="path4595" d="m8.4392014.53125504c-.6933802.07172-1.2266203.211481-1.6154703.56843996-.3712501.340797-.5678598.844467-.6775 1.548225-.0423.02872-.0829.06182-.11938.10232-.0648.07201-.11524.166566-.11524.28112v.10542c0 .1003399.0486.183453.0941.2340939.0264.02945.0532.0493.0801.06976-.46039.02749-.7942899.4485388-.7942999.9322419 0 .4914802.3541501.9317281.8371901.9317259.0427 0 .0828-.0027.1245498-.0098.1810002.451876.4928101.830037.8904101 1.0945071v.4893749c-.0414-.0003439-.0818.0091-.11886.02739l-1.0583701.529686c-.0406.020169-.0711.04629-.0966.08372-1.4273799.4160049-2.4309399 1.7370329-2.4309399 3.3264123v2.585371c-.31641-.284856-.79352-.270004-1.09145.02791-.3077.30771-.3077.81522 0 1.122928l.82789.827857v.201538c0 .435159.35188.792715.79326.792715.20333 0 .3883099-.07496.5297-.202571.14097.127771.32575.202571.5291901.202571.2034299 0 .3882099-.07484.5291798-.202571.1413999.127571.3263799.202571.5297.202571.2033299 0 .3877299-.07496.52867-.202571.14141.127571.3258601.202571.52919.202571.34246 0 .6388499-.218536.74882-.529166h1.14725c.1099698.31063.40636.529166.7488203.529166.20333 0 .3877806-.075.5291906-.202571.14094.12761.32534.202571.52866.202571.20333 0 .38831-.075.52971-.202571.14097.12773.32575.202571.52918.202571.20344 0 .38821-.0748.52919-.202571.14139.12761.32637.202571.5297.202571.44138 0 .79326-.357556.79326-.792715v-.201538l.82789-.827857c.3077-.307709.3077-.815218 0-1.122928-.29793-.29791-.77504-.312766-1.09145-.02791 0-.86179 0-1.723581 0-2.585371 0-1.5893794-1.00356-2.9104074-2.43094-3.3264134-.0255-.03743-.0561-.06354-.0966-.08372l-1.0583706-.5296828c-.0371-.018341-.0775-.02772-.11886-.02739v-.489376c.3976006-.264469.7094106-.64263.8904106-1.0945058.0417.0071.0819.0098.12455.0098.48304.0000021.83719-.4402461.83719-.931726-.00001-.4837041-.33391-.9047559-.7943-.932243.0269-.02046.0537-.04032.0801-.06976.0455-.05064.0941-.133754.0941-.234094v-.105454c0-.114554-.0504-.209115-.11524-.28112-.0365-.0405-.0771-.0736-.11937-.10232-.10964-.703759-.30626-1.207428-.6775-1.548225-.3888606-.35695896-.9220908-.49671696-1.6154708-.56843996-.008-.0011-.0169-.0018-.02747-.002083-.01057.0002995-.01907.0009905-.02747.002116zm1.31264.95701396c.2050901.188268.3540206.477749.4552906.932759-.0206-.005-.0413-.01016-.0625-.01499-.4427406-.100651-1.0294308-.160197-1.6780007-.160197-.6485599 0-1.2352499.05955-1.6779902.160197-.021201.0048-.042.01001-.0625.01499.10127-.45501.2502-.744491.4552899-.932759.25493-.234026.64663-.359294 1.2852001-.428915.6385802.06962 1.0302802.194889 1.2852103.428915zm-1.28524 1.287259c.6160596 0 1.1746901.05849 1.5606906.146245.18312.04163.31948.08774.41187.134875-.0356.01399-.0717.02648-.12196.04134-.19344.05717-.4663205.10937-.7467505.153996-.5492502.08741-1.0811304.136404-1.1038501.1384929-.022701-.00209-.5545903-.05109-1.1038402-.1384929-.28043-.04463-.5533102-.09683-.7467499-.153996-.0503-.01486-.0863-.02735-.12197-.04134.0924-.04714.2287598-.09324.4118797-.134875.3860001-.08775.9446304-.146245 1.5606804-.146245zm-1.8516302.8697149c.17947.04508.4321101.09298.6661301.1302242.5840399.09294 1.1617299.1446937 1.1617299.1446937.016301.0004234.0325 0 .0476 0 0 0 .5776898-.05175 1.1617203-.1446937.23403-.03724.4866705-.08514.6661405-.1302242v.7746291c0 1.0127231-.8201309 1.836063-1.8516407 1.836063-1.0315001 0-1.85163-.8233399-1.85163-1.836063zm-.5291802.7746291c0 .1205701.008.2392989.0258.3550171-.1451104-.0093-.2888503-.1694291-.2909503-.4020431.00201-.222957.1297099-.373856.2651301-.4004921zm4.761631-.4475181c.1354.02664.26304.1775351.26511.4004921-.002.232614-.14584.3927671-.29095.4020431.0175-.1157182.0258-.234447.0258-.3550171zm-3.1745908 2.6783892c.2485099.08746.5153501.1343578.7937701.1343578.2784297 0 .5452699-.0469.7937798-.1343578v.5787757l-.7937797.6335522-.7937702-.6335522zm-.5617501.8061518.8671599.693498-.5374499.2676829-.86716-.6934969zm2.7110503 0 .5374506.267684-.8671608.6934969-.53746-.2676829zm-3.7394402.5524211 1.1612099.9281078c.0802.06477.1907101.07707.2831902.03152l.9395101-.4712891.9395197.4712891c.0925.04555.2029903.03325.2831904-.03152l1.1612105-.9281078c1.23142.325565 2.11468 1.452835 2.11468 2.83652v.936893c-.15234-.08718-.32644-.141076-.51575-.141076-.12108-.04538-.27848-.197935-.33436-.254765-.1844-.182681-.39678-.438808-.59172-.697632-.38986-.517648-.71471-1.0407636-.71471-1.0407636-.0487-.07693-.13374-.123353-.2248-.12299h-4.2345108c-.0911-.000371-.17609.04606-.2248.12299-.0000101 0-.3248501.5231156-.7147199 1.0407636-.1949299.258824-.40731.514951-.59171.697632-.0559.05683-.21328.209385-.3343601.254765-.1893099 0-.36341.0539-.5157499.141076v-.936893c0-1.383685.8832499-2.510955 2.1146799-2.83652zm.4113501 2.045353h3.9451207c.0655.103636.31273.48366.66252.952914.16702.224061.34983.448306.5235.63407h-6.3171509c.1736703-.185764.35648-.410009.5235001-.63407.34979-.469254.5969699-.849278.6625101-.952914zm1.1787899.52865c-.3528801 0-.3528801.529167 0 .529167h1.5875499c.3528803 0 .3528803-.529167 0-.529167zm4.7766208 1.5875c.2802 0 .51575.226354.51575.516763-.000367.512363-.000525 1.03573-.000529 1.474847-.20336 0-.3883.075-.5297.203088-.14099-.12823-.32572-.203088-.529191-.203088-.20346 0-.388199.0749-.529179.203088-.14141-.12811-.32635-.203088-.529711-.203088-.203229 0-.38774.0756-.52866.203605-.14138-.12797-.3264695-.203605-.5297096-.203605-.4434205 0-.7927405.36014-.7927405.7953v.388606h-1.0583701v-.388607c0-.43516-.34931-.7953-.7927498-.7953-.2032302 0-.38832.07564-.5297001.203605-.14092-.128005-.3254301-.203605-.52867-.203605-.20335 0-.3882901.07498-.5297001.203088-.14098-.128188-.3257198-.203088-.5291798-.203088-.2034702 0-.3882001.07486-.5291901.203088-.14141-.128088-.32635-.203088-.5297-.203088-.000084-.514575-.000153-1.033072-.0005211-1.474847.0000099-.290409.2355499-.516763.5157551-.516762zm-9.5392907 1.585432c.0665.000001.13212.02463.1855199.07803l.34366.344166v.187068c-.10722.09755-.17821.208501-.22221.338481l-.49457-.494543c-.10688-.10689-.1017199-.273439 0-.375171.0535-.0534.12109-.07803.1876001-.07803zm11.1128907 0c.0665 0 .13414.02463.18759.07803.10173.101731.10689.268281 0 .375171l-.49456.494544c-.044-.12998-.11499-.240931-.22221-.338481v-.187068l.34366-.344166c.0534-.0534.11898-.07803.18552-.07803zm-10.0545208.93586c.14392 0 .26614.114457.26614.265617v.654224c0 .15116-.12325.263549-.26614.263549-.1429 0-.26356-.112389-.26356-.263549v-.654224c0-.15116.11963-.265617.26356-.265617zm1.05889 0c.1449499 0 .2635499.114457.2635499.265617v.654224c0 .15116-.1186.263549-.2635499.263549-.1449599 0-.2635599-.112389-.2635599-.263549v-.654224c0-.15116.1186-.265617.2635599-.265617zm1.05888 0c.1459999 0 .2635599.114457.2635599.265617v.654224c0 .15116-.1206598.263549-.2635599.263549-.1428901 0-.2661399-.112389-.2661399-.263549v-.654224c0-.15116.1201499-.265617.2661399-.265617zm1.05837 0c.146 0 .26356.114457.26356.265617v.654224c0 .15116-.11962.263549-.26356.263549-.1439201 0-.2656199-.112389-.2656199-.263549v-.654224c0-.15116.1196398-.265617.2656199-.265617zm2.6438602 0c.14599 0 .2656306.114457.2656306.265617v.654224c0 .15116-.1217006.263549-.2656306.263549s-.26355-.112389-.26355-.263549v-.654224c0-.15116.11756-.265617.26355-.265617zm1.0583706 0c.146 0 .26615.114457.26615.265617v.654224c0 .15116-.12325.263549-.26615.263549-.14289 0-.26355-.112389-.26355-.263549v-.654224c0-.15116.11756-.265617.26355-.265617zm1.05889 0c.14496 0 .26356.114457.26356.265617v.654224c0 .15116-.1186.263549-.26356.263549-.14495 0-.26356-.112389-.26356-.263549v-.654224c0-.15116.11861-.265617.26356-.265617zm1.05889 0c.14393 0 .26356.114457.26356.265617v.654224c0 .15116-.12066.263549-.26356.263549-.14289 0-.26614-.112389-.26614-.263549v-.654224c0-.15116.12222-.265617.26614-.265617z" font-variant-ligatures="normal" font-variant-position="normal" font-variant-caps="normal" font-variant-numeric="normal" font-variant-alternates="normal" font-feature-settings="normal" text-indent="0" text-align="start" text-decoration-line="none" text-decoration-style="solid" text-decoration-color="rgb(0,0,0)" text-transform="none" text-orientation="mixed" white-space="normal" shape-padding="0" isolation="auto" mix-blend-mode="normal" solid-color="rgb(0,0,0)" solid-opacity="1" vector-effect="none" fill="currentColor" data-original="#000000"/></g></g></svg>