<svg xmlns="http://www.w3.org/2000/svg" version="1.1" xmlns:xlink="http://www.w3.org/1999/xlink" xmlns:svgjs="http://svgjs.com/svgjs" x="0" y="0" viewBox="0 0 512 512" style="enable-background:new 0 0 512 512" xml:space="preserve"><g><path xmlns="http://www.w3.org/2000/svg" d="M504.92,265.43H477.06a7.08,7.08,0,0,0-7.08,7.08v9.16H406.39l-22.8,13.17V116.42a7.08,7.08,0,0,0-7.08-7.08H135.44a7.08,7.08,0,0,0-7.08,7.08V294.81l-22.75-13.14H42v-9.16a7.08,7.08,0,0,0-7.08-7.08H7.08A7.08,7.08,0,0,0,0,272.51V373.73a7.09,7.09,0,0,0,7.08,7.09H34.94A7.09,7.09,0,0,0,42,373.73v-9.16H52.11l54.69,31.58H231.42a22.86,22.86,0,0,0,21.15-31.58h6.86a22.88,22.88,0,0,0,21.15,31.58H405.2l54.69-31.58H470v9.16a7.09,7.09,0,0,0,7.08,7.09h27.86a7.09,7.09,0,0,0,7.08-7.09V272.51A7.08,7.08,0,0,0,504.92,265.43ZM27.86,366.65H14.17v-87H27.86Zm203-243.14h50.18v73.55L256,153.64l-25.11,43.5Zm-88.36,0h74.19v30.8H142.53Zm94.64,256.31a9.12,9.12,0,0,1-6.06,2.16H110.59L55.9,350.41H42V295.84h59.79L157.46,328a10.24,10.24,0,0,1-4.55,19.1,10.12,10.12,0,0,1-4.84-.92L93.35,314.6a7,7,0,0,0-9.55,2.57l-.09.15a7,7,0,0,0,2.56,9.56L140.14,358c.43.24.86.48,1.31.7l10.4,6,75.09-.11h4.61a8.71,8.71,0,0,1,5.62,15.25Zm-5.51-29.42h-59c.3-.44.58-.89.85-1.36a24.44,24.44,0,0,0-8.93-33.34l-22-12.71V168.47h74.19v55.11a7.09,7.09,0,0,0,13.22,3.54L256,182,282,227a7.08,7.08,0,0,0,13.21-3.54v-55h11.1s7,0,7-7.08-7-7.08-7-7.08h-11.1v-30.8h74.2v30.8h-11.1s-7-.09-7,7.08,7,7.08,7,7.08h11.1V303l-22,12.68A24.43,24.43,0,0,0,338.52,349c.27.47.55.92.85,1.36H231.66Zm238.32,0H456.1L401.41,382H280.89a9.09,9.09,0,0,1-6.06-2.17,8.7,8.7,0,0,1,5.61-15.24h4.61l75.1.11,10.4-6c.45-.22.88-.45,1.31-.7l53.87-31.1a7,7,0,0,0,2.56-9.56l-.09-.15a7,7,0,0,0-9.55-2.57l-54.73,31.55a10.19,10.19,0,0,1-4.24.93c-.2,0-.39,0-.64,0a10.24,10.24,0,0,1-4.5-19.09l55.65-32.13H470Zm27.85,16.24H484.14v-87h13.69Z" fill="currentColor" data-original="#000000"/></g></svg>